<svg width="178" height="179" viewBox="0 0 178 179" fill="none" xmlns="http://www.w3.org/2000/svg">
<path opacity="0.6" fill-rule="evenodd" clip-rule="evenodd" d="M177.96 88.9791C177.96 138.122 138.122 177.959 88.98 177.959C39.8379 177.959 0 138.122 0 88.9791C0 39.837 39.8379 0 88.98 0C138.122 0 177.96 39.837 177.96 88.9791Z" fill="#F1F6F8"/>
<path fill-rule="evenodd" clip-rule="evenodd" d="M87.5722 29.0672C85.0053 24.7041 72.0438 22.1381 67.0393 29.0672C61.162 37.2058 68.1479 44.2092 68.1479 44.2092V37.9556H82.2318L88.3422 43.218V50.6261H90.5925C90.5925 47.5425 93.0916 45.0434 96.1743 45.0434C96.6552 45.0434 97.1132 45.1224 97.5574 45.2371C98.0759 45.3702 98.5605 45.5748 99.0093 45.841C99.9436 41.8093 100.519 36.1586 97.6969 32.6602C94.2369 28.3706 87.5722 29.0672 87.5722 29.0672Z" fill="#2C2C4E"/>
<path fill-rule="evenodd" clip-rule="evenodd" d="M154.821 145.277L150.543 93.0158C149.879 84.8974 143.096 78.6475 134.951 78.6475H104.365H97.3949H89.6116H81.3342H74.7981H42.8024C35.2915 78.6475 28.8397 83.986 27.4346 91.3648L19.5043 133.002C18.7444 136.987 18.8949 141.098 19.9934 144.943C20.578 146.994 21.4205 148.974 22.5659 150.81C26.0167 156.341 31.3589 160.064 37.317 161.535C39.1975 162 41.1367 162.245 43.0997 162.245H46.6092L47.7831 168.102C60.2535 174.758 74.4888 178.541 89.6116 178.541C104.735 178.541 118.97 174.758 131.44 168.102L133.166 159.489L136.58 160.421C138.812 161.031 141.021 161.066 143.099 160.668C148.329 159.669 152.69 155.818 154.251 150.675C154.761 148.992 154.977 147.176 154.821 145.277Z" fill="black"/>
<path d="M90.7895 122.312L67.9658 78.4199H110.102L90.7895 122.312Z" fill="white"/>
<path fill-rule="evenodd" clip-rule="evenodd" d="M133.831 130.354L71.2046 123.425L71.3533 122.071L133.981 129.001L133.831 130.354Z" fill="#2C2C4E"/>
<path fill-rule="evenodd" clip-rule="evenodd" d="M132.987 160.146L62.3926 140.857L62.7505 139.543L133.346 158.831L132.987 160.146Z" fill="#2C2C4E"/>
<path fill-rule="evenodd" clip-rule="evenodd" d="M45.9416 162.379L38.7207 126.347L40.056 126.079L47.2769 162.111L45.9416 162.379Z" fill="#2C2C4E"/>
<path fill-rule="evenodd" clip-rule="evenodd" d="M56.4419 146.841H31.6006C29.2518 146.841 27.22 145.228 26.7172 142.965L16.6373 95.923C15.9543 92.8488 18.3282 89.9399 21.5196 89.9399H46.3597C48.7096 89.9399 50.7415 91.5535 51.2443 93.817L61.3253 140.859C62.006 143.933 59.6321 146.841 56.4419 146.841Z" fill="url(#paint0_linear)"/>
<path fill-rule="evenodd" clip-rule="evenodd" d="M62.5842 140.417L71.585 122.429L62.8489 113.802L48.1003 115.081L42.2168 136.698L62.5842 140.417Z" fill="#F5C5B6"/>
<path fill-rule="evenodd" clip-rule="evenodd" d="M11.9307 126.212L19.5618 115.619L29.8563 119.154L33.6567 136.592L19.024 140.2L11.9307 126.212Z" fill="#F5C5B6"/>
<path fill-rule="evenodd" clip-rule="evenodd" d="M123.436 128.618L122.46 100.186L123.822 100.139L124.799 128.571L123.436 128.618Z" fill="#2C2C4E"/>
<path fill-rule="evenodd" clip-rule="evenodd" d="M99.0088 45.8409C98.56 45.5748 98.0755 45.3701 97.5569 45.237C97.1127 45.1223 96.6548 45.0434 96.1739 45.0434C93.0911 45.0434 90.5921 47.5424 90.5921 50.6261H88.3417V43.218L82.2313 37.9556H68.1475V60.7196C68.1475 64.3126 71.4908 66.9713 74.9912 66.1628L81.6054 64.431V78.6562L89.5816 86.5599L97.5569 78.6562V56.0142C99.967 55.3966 101.757 53.2289 101.757 50.6261C101.757 48.5823 100.646 46.8137 99.0088 45.8409Z" fill="#F5C5B6"/>
<path d="M72.4908 55.9639L72.4425 55.9755L72.4538 56.0238L72.6481 56.8564C72.6481 56.8564 72.6481 56.8564 72.6481 56.8564C73.3002 59.6512 75.7688 61.5398 78.4847 61.5398C78.9411 61.5398 79.403 61.4851 79.867 61.3747L79.8671 61.3746C83.085 60.6012 85.0832 57.3153 84.3212 54.0512L84.3212 54.0511L84.1257 53.2186L84.1142 53.1696L84.0653 53.1814L72.4908 55.9639ZM79.4551 59.6123C77.4965 60.0803 75.523 59.0728 74.6854 57.2979L82.6953 55.3733C82.7316 57.34 81.4146 59.1398 79.4551 59.6123Z" fill="#2C2C4E" stroke="#2C2C4E" stroke-width="0.1"/>
<path fill-rule="evenodd" clip-rule="evenodd" d="M162.347 60.6595H122.154C119.062 60.6595 116.555 58.1483 116.555 55.0503V14.7855C116.555 11.6885 119.062 9.17725 122.154 9.17725H162.347C165.44 9.17725 167.949 11.6885 167.949 14.7855V55.0503C167.949 58.1483 165.44 60.6595 162.347 60.6595Z" fill="url(#paint1_linear)"/>
<g clip-path="url(#clip0)">
<path d="M152.65 23.4131H131.712C129.634 23.4131 127.944 25.1032 127.944 27.1806V42.8844C127.944 44.9618 129.634 46.6519 131.712 46.6519H152.65C154.728 46.6519 156.418 44.9618 156.418 42.8844V27.1806C156.418 25.1032 154.728 23.4131 152.65 23.4131ZM154.117 42.8844C154.117 43.6934 153.459 44.3516 152.65 44.3516H131.712C130.903 44.3516 130.245 43.6934 130.245 42.8844V27.1806C130.245 26.3716 130.903 25.7135 131.712 25.7135H152.65C153.459 25.7135 154.117 26.3716 154.117 27.1806V42.8844Z" fill="white"/>
<path d="M156.21 26.521C155.846 26.0007 155.129 25.8741 154.608 26.2384L142.181 34.9371L129.754 26.2383C129.234 25.874 128.517 26.0006 128.152 26.521C127.788 27.0413 127.915 27.7585 128.435 28.1228L141.522 37.2834C141.72 37.422 141.95 37.4913 142.181 37.4913C142.412 37.4913 142.643 37.422 142.841 37.2834L155.927 28.1228C156.448 27.7586 156.574 27.0414 156.21 26.521Z" fill="white"/>
</g>
<defs>
<linearGradient id="paint0_linear" x1="13.0465" y1="141.976" x2="64.5636" y2="109.844" gradientUnits="userSpaceOnUse">
<stop stop-color="#FFB36D"/>
<stop offset="1" stop-color="#FF8888"/>
</linearGradient>
<linearGradient id="paint1_linear" x1="112.581" y1="56.2576" x2="163.054" y2="16.4518" gradientUnits="userSpaceOnUse">
<stop stop-color="#FFB36D"/>
<stop offset="1" stop-color="#FF8888"/>
</linearGradient>
<clipPath id="clip0">
<path d="M127.944 20.7959H156.418V49.2696H127.944V20.7959Z" fill="white"/>
</clipPath>
</defs>
</svg>
